<svg width="24" height="24" viewBox="0 0 24 24" fill="none" xmlns="http://www.w3.org/2000/svg">
<path fill-rule="evenodd" clip-rule="evenodd" d="M18.8942 5.1057C19.1871 5.3986 19.1871 5.87347 18.8942 6.16636L13.0606 12L18.8942 17.8336C19.1871 18.1265 19.1871 18.6014 18.8942 18.8943C18.6013 19.1872 18.1265 19.1872 17.8336 18.8943L11.9999 13.0607L6.16632 18.8943C5.87343 19.1872 5.39856 19.1872 5.10566 18.8943C4.81277 18.6014 4.81277 18.1265 5.10566 17.8336L10.9393 12L5.10566 6.16637C4.81276 5.87348 4.81276 5.3986 5.10566 5.10571C5.39855 4.81281 5.87342 4.81281 6.16632 5.10571L11.9999 10.9393L17.8336 5.1057C18.1265 4.81281 18.6014 4.81281 18.8942 5.1057Z" fill="white"/>
</svg>
