<svg width="24" height="24" viewBox="0 0 24 24" fill="none" xmlns="http://www.w3.org/2000/svg">
<path fill-rule="evenodd" clip-rule="evenodd" d="M19.7778 22H4.22222C2.99492 22 2 21.0051 2 19.7778V4.22222C2 2.99492 2.99492 2 4.22222 2H19.7778C21.0051 2 22 2.99492 22 4.22222V19.7778C22 21.0051 21.0051 22 19.7778 22ZM16.1234 19H19V13.0907C19 10.5904 17.5827 9.38152 15.603 9.38152C13.6224 9.38152 12.7889 10.9239 12.7889 10.9239V9.66667H10.0167V19H12.7889V14.1006C12.7889 12.7878 13.3932 12.0066 14.5498 12.0066C15.613 12.0066 16.1234 12.7573 16.1234 14.1006V19ZM5 6.72227C5 7.67337 5.76517 8.44454 6.70944 8.44454C7.65371 8.44454 8.41842 7.67337 8.41842 6.72227C8.41842 5.77117 7.65371 5 6.70944 5C5.76517 5 5 5.77117 5 6.72227ZM8.16868 19H5.27799V9.66667H8.16868V19Z" fill="#1D1D26"/>
</svg>
