<svg width="180" height="50" viewBox="0 0 180 50" fill="none" xmlns="http://www.w3.org/2000/svg">
<path d="M179.451 40.7951C178.21 40.8694 176.254 40.8694 175.126 40.7951C173.997 40.7208 175.013 40.6836 177.383 40.6836C179.752 40.6836 180.693 40.7208 179.451 40.7951Z" fill="#1D1D26"/>
<path d="M96.4308 46.9255C96.3932 46.554 96.506 46.1081 96.6941 45.9967C96.8822 45.8481 97.4088 45.7366 97.8978 45.7366C98.3492 45.7366 98.763 45.9224 98.763 46.1081C98.763 46.2939 98.3869 46.5168 97.8978 46.5911C97.1079 46.7026 97.1079 46.7397 98.0859 47.1484C98.7254 47.4085 99.1392 47.8915 99.1392 48.3374C99.1392 48.7461 98.763 49.3034 98.274 49.5635C97.5593 49.9721 97.3712 49.9721 96.7693 49.3777C96.4308 49.0061 96.2427 48.7089 96.3932 48.6718C96.5812 48.6346 97.0703 48.6346 97.5217 48.6718C98.0107 48.7089 98.3869 48.5603 98.3869 48.3374C98.3869 48.1144 97.9731 47.8915 97.4464 47.7801C96.8822 47.6686 96.4684 47.3342 96.4308 46.9255Z" fill="#1D1D26"/>
<path d="M124.267 46.9255C124.23 46.554 124.343 46.1081 124.531 45.9967C124.719 45.8481 125.245 45.7366 125.734 45.7366C126.186 45.7366 126.6 45.9224 126.6 46.1081C126.6 46.2939 126.223 46.5168 125.734 46.5911C124.944 46.7026 124.944 46.7397 125.922 47.1484C126.524 47.4085 126.976 47.8915 126.976 48.2259C126.976 48.5974 126.637 49.1919 126.223 49.5263C125.509 50.1579 125.433 50.1579 124.907 49.5263C124.606 49.1919 124.38 48.8204 124.38 48.7089C124.343 48.5975 124.794 48.5603 125.283 48.5974C125.81 48.6718 126.223 48.5603 126.223 48.3374C126.223 48.1144 125.81 47.8915 125.283 47.7801C124.719 47.6686 124.305 47.3342 124.267 46.9255Z" fill="#1D1D26"/>
<path fill-rule="evenodd" clip-rule="evenodd" d="M36.6198 0.297232C38.8392 0.37154 41.999 0.594464 43.6541 0.780234C45.5726 1.00316 48.4315 0.966004 51.5537 0.705926C54.2621 0.483002 58.4 0.334386 60.7699 0.37154C63.1397 0.408694 65.2087 0.55731 65.3968 0.705926C65.5472 0.854542 65.6225 2.04347 65.472 5.79602L63.7792 5.75887C62.8388 5.75887 60.5442 5.38733 58.7009 4.90433C56.8577 4.45848 54.7135 3.97548 53.9988 3.86402C53.096 3.75255 51.8923 3.97548 50.049 4.6814C48.6196 5.23871 45.7983 6.50195 43.8422 7.50511C41.8861 8.47111 39.1401 10.143 37.7483 11.1462C35.3032 12.9667 35.1527 13.0411 33.9866 12.5952C33.3095 12.3351 32.5571 11.8893 32.2938 11.6664C31.9552 11.332 31.7672 9.66004 31.7295 6.0561C31.6919 2.41501 31.8048 0.817388 32.1057 0.55731C32.369 0.297232 34.137 0.222924 36.6198 0.297232V0.297232ZM71.6788 0.037154H93.8728V6.35333H78.826V13.4126H91.992V20.1003H78.826V27.1596L94.0609 27.3453L94.249 33.8473H71.6788V0.037154ZM96.1299 0.037154H103.277L103.465 14.0814L114.186 0.037154H118.324C120.619 0.037154 122.462 0.148616 122.462 0.334386C122.462 0.483002 120.017 3.64109 117.007 7.35649C113.998 11.109 111.59 14.3786 111.628 14.6758C111.703 14.9359 113.772 18.4655 116.255 22.4782C118.738 26.4908 120.844 29.7604 120.957 29.7604C121.07 29.7604 123.59 23.0726 132.054 0L135.552 0.037154C138.524 0.037154 139.051 0.148616 139.239 0.705926C139.352 1.04031 142.06 8.58258 145.258 17.4252C148.455 26.2307 151.051 33.5501 151.051 33.6615C151.051 33.773 149.358 33.8473 143.527 33.8473L141.082 26.3793L129.421 26.6023L127.164 33.8473H114.75L110.612 27.1596C108.318 23.4813 106.399 20.4719 106.286 20.4347C106.174 20.4347 105.459 21.2521 103.239 24.0015L103.277 33.8473H96.1299V0.037154ZM131.866 20.1003C137.095 20.1003 138.637 19.9889 138.637 19.8402C138.637 19.6545 137.922 17.3881 137.02 14.713L135.364 9.88297L131.866 20.1003Z" fill="#1D1D26"/>
<path fill-rule="evenodd" clip-rule="evenodd" d="M88.6065 40.3492C88.6065 42.3927 88.7193 43.0986 89.0955 43.0243C89.3964 42.9253 89.572 41.9964 89.6221 40.2378C89.6597 38.1572 89.5469 37.5627 89.1331 37.5627C88.7193 37.5627 88.6065 38.1943 88.6065 40.3492ZM116.857 40.3492C116.819 42.6156 116.932 43.1358 117.383 43.1358C117.835 43.1358 117.948 42.5785 117.91 40.3492C117.872 38.3801 117.722 37.5627 117.383 37.5627C117.045 37.5627 116.894 38.3801 116.857 40.3492ZM148.417 40.3492C148.417 42.3927 148.53 43.0986 148.907 43.0243C149.207 42.9253 149.383 41.9964 149.433 40.2378C149.471 38.1572 149.358 37.5627 148.944 37.5627C148.53 37.5627 148.417 38.1943 148.417 40.3492ZM10.8145 40.8323L10.9273 42.95C13.7486 43.0986 14.1248 42.9872 14.1248 42.5785C14.1248 42.2069 13.7486 42.0212 12.9963 42.0212C12.3944 42.0212 11.8678 41.8354 11.8678 41.6496C11.8678 41.4639 12.2816 41.2781 12.8082 41.2781C13.3348 41.2781 13.7486 41.0923 13.7486 40.9066C13.7486 40.7208 13.3348 40.535 12.8082 40.535C12.2816 40.535 11.8678 40.3492 11.8678 40.1635C11.8678 39.9777 12.3192 39.7548 12.8834 39.6805C13.4101 39.6433 13.9367 39.3832 14.0119 39.1232C14.0872 38.8259 13.5982 38.6773 12.3944 38.6773H10.7016L10.8145 40.8323ZM14.501 40.9066C14.501 42.6528 14.6138 43.1358 15.0652 43.1358C15.4414 43.1358 15.6295 42.7643 15.6295 41.9469C15.6295 40.7951 15.6295 40.7951 16.1185 41.4639C16.5699 42.1326 16.6828 42.1326 16.9837 41.6868C17.2094 41.2409 17.3222 41.2781 17.5103 42.0212C17.6232 42.5042 17.9241 42.95 18.1498 43.0243C18.4884 43.1358 18.6388 42.5413 18.6388 40.9066C18.6388 39.3832 18.4884 38.6773 18.1498 38.6773C17.9241 38.6773 17.4727 39.086 17.2094 39.5319L16.6828 40.3864C15.8552 39.086 15.3662 38.7145 15.0652 38.7145C14.6138 38.7145 14.501 39.1975 14.501 40.9437V40.9066ZM19.3912 40.9066V43.1358C21.9867 43.1358 22.4005 42.95 22.4005 42.5785C22.4005 42.2069 22.062 42.0212 21.4601 42.0212C20.5949 42.0212 20.5197 41.8726 20.5197 40.3492C20.5197 39.086 20.3692 38.6773 19.9554 38.6773C19.504 38.6773 19.3912 39.1603 19.3912 40.9066ZM23.6043 40.3121C23.1905 41.2781 22.8519 42.3184 22.8143 42.5785C22.8143 42.8757 22.9272 43.1358 23.1529 43.1358C23.341 43.1358 23.6043 42.8757 23.7171 42.5785C23.83 42.2441 24.2062 42.0212 24.5447 42.0212C24.9209 42.0212 25.4099 42.3184 25.6732 42.6528C25.8989 43.0243 26.2375 43.173 26.4256 43.0243C26.576 42.8757 26.3503 41.8726 25.9365 40.7951C25.4851 39.7176 24.9585 38.7888 24.7328 38.7145C24.5071 38.6402 24.0181 39.3832 23.6043 40.3121V40.3121ZM27.2907 40.9066C27.2907 42.1326 27.4412 43.1358 27.6669 43.1358C27.855 43.1358 28.0431 42.7643 28.0431 42.3927C28.0431 41.984 28.1936 41.6496 28.4193 41.6496C28.6073 41.6496 29.0211 41.984 29.2468 42.3927C29.5101 42.8014 29.9616 43.1358 30.1873 43.1358C30.4506 43.1358 30.6763 42.9872 30.6763 42.8386C30.6763 42.69 30.3377 42.1326 29.9616 41.6496C29.2468 40.7208 29.2468 40.6836 29.9616 39.6805C30.3377 39.1232 30.4882 38.6773 30.2625 38.6773C30.0368 38.6773 29.4349 39.0489 28.9459 39.4947L28.0055 40.3492C28.0431 39.0489 27.855 38.6773 27.6669 38.6773C27.4412 38.6773 27.2907 39.6433 27.2907 40.9066V40.9066ZM32.6324 40.7579C32.7076 42.0583 32.9333 42.9129 33.1966 42.9872C33.4599 43.0615 33.6856 42.8014 33.6856 42.3927C33.6856 41.984 33.8361 41.6496 34.0618 41.6496C34.2499 41.6496 34.5884 41.984 34.8141 42.3927C35.0022 42.7643 35.4536 43.1358 35.7546 43.1358C36.0555 43.1358 36.3188 43.0243 36.3188 42.95C36.3188 42.8386 35.9803 42.2441 35.5665 41.6496L34.8141 40.535C35.9803 39.086 36.1307 38.6773 35.905 38.6773C35.717 38.6773 35.1151 39.0489 34.5884 39.4947L33.648 40.3492C33.6856 38.9746 33.4599 38.6773 33.0838 38.6773C32.6324 38.6773 32.5571 39.0489 32.6324 40.7579ZM36.8831 39.3461C36.5069 39.7176 36.206 40.4236 36.2436 40.9066C36.2812 41.4267 36.5821 42.0955 36.9583 42.467C37.3345 42.8014 37.974 43.0986 38.3878 43.0986C38.8015 43.1358 39.441 42.9129 39.8548 42.6528C40.3062 42.3556 40.5695 41.7611 40.5695 40.9066C40.5695 40.0149 40.3062 39.4204 39.8548 39.1232C39.441 38.8631 38.8015 38.6402 38.3501 38.6402C37.8987 38.6402 37.2593 38.9746 36.8831 39.3461V39.3461ZM37.5978 40.2378C37.7107 39.9777 38.1621 39.7919 38.5758 39.7919C38.9896 39.7919 39.4034 40.0149 39.5163 40.3492C39.6291 40.6465 39.6291 41.1295 39.5163 41.4639C39.4034 41.7611 38.9896 42.0212 38.5758 42.0212C38.1621 42.0212 37.7107 41.7239 37.5978 41.3524C37.485 40.9809 37.4473 40.4979 37.5978 40.2378ZM41.209 40.9066C41.209 42.5042 41.3595 43.0986 41.6604 42.9872C41.9238 42.9129 42.2247 42.4299 42.3375 41.8354L42.5256 40.8323C43.5413 42.6156 44.0679 43.0615 44.2936 42.9872C44.5946 42.9129 44.8203 42.0955 44.8579 40.7579C44.8955 39.0489 44.7827 38.6773 44.2936 38.6773C43.8798 38.6773 43.6918 39.0117 43.6918 39.8662L43.6541 41.0923C42.488 39.1975 41.9238 38.6402 41.6604 38.6402C41.3595 38.6402 41.209 39.3461 41.209 40.9066V40.9066ZM45.3469 40.1635C45.3469 40.9809 45.4974 41.984 45.7231 42.3927C45.9739 42.8881 46.4754 43.1358 47.2278 43.1358C47.9801 43.1358 48.4817 42.8881 48.7324 42.3927C48.9205 41.984 49.1086 40.9809 49.1086 40.1635C49.1086 39.086 48.9581 38.6773 48.5444 38.6773C48.1306 38.6773 47.9801 39.086 47.9801 40.3492C47.9801 41.7611 47.8672 42.0212 47.2278 42.0212C46.5883 42.0212 46.4754 41.7611 46.4754 40.3492C46.4754 39.086 46.3249 38.6773 45.9112 38.6773C45.4974 38.6773 45.3469 39.086 45.3469 40.1635V40.1635ZM49.4848 39.2346C49.4848 39.5319 49.7481 39.7919 50.049 39.7919C50.4628 39.7919 50.6133 40.2006 50.6133 41.4639C50.6133 42.6156 50.7638 43.0615 51.0647 42.9872C51.328 42.9129 51.5913 42.1698 51.6289 41.3153C51.7042 40.2378 51.8923 39.7919 52.3061 39.7919C52.607 39.7919 52.8703 39.5319 52.8703 39.2346C52.8703 38.7888 52.4189 38.6773 51.1775 38.6773C49.9362 38.6773 49.4848 38.7888 49.4848 39.2346ZM55.7668 39.8291C55.4283 40.4979 55.0897 41.5382 54.9769 42.0955C54.864 42.69 54.9016 43.1358 55.1273 43.1358C55.3154 43.1358 55.5787 42.8757 55.6916 42.5785C55.8044 42.2441 56.2182 42.0212 56.632 42.0212C57.0458 42.0212 57.4596 42.2069 57.5724 42.467C57.6853 42.7271 58.5881 42.9872 59.6414 43.0243C61.1837 43.0986 61.5974 42.9872 61.8984 42.3927C62.0865 41.984 62.2746 41.5382 62.2746 41.4639C62.2746 41.3524 61.7103 40.9437 61.0332 40.535L59.8295 39.7919C61.5222 39.7919 61.8608 39.6062 61.7855 39.3089C61.7103 39.0489 61.2589 38.7888 60.7323 38.7145C60.2432 38.6402 59.6037 38.8631 59.3404 39.1975C59.1147 39.4947 58.9643 40.0149 59.0771 40.3492C59.19 40.6465 59.679 41.0552 60.2056 41.2781C60.7323 41.4639 61.146 41.7239 61.146 41.8354C61.146 41.9097 60.6946 41.9469 60.168 41.9097C59.5661 41.8354 59.1147 42.0212 58.9643 42.3927C58.8514 42.7271 58.4752 42.1698 57.9862 40.9066C57.5348 39.8291 57.0082 38.8259 56.7449 38.7516C56.5192 38.6773 56.0677 39.1603 55.7668 39.8291V39.8291ZM63.0645 40.7208C62.6131 41.8354 62.2746 42.8386 62.2746 42.95C62.2746 43.0243 62.5379 43.1358 62.8388 43.1358C63.1397 43.1358 63.4783 42.8757 63.5912 42.5785C63.704 42.2441 64.0802 42.0212 64.4187 42.0212C64.7949 42.0212 65.2839 42.3184 65.5472 42.6528C65.7729 43.0243 66.0739 43.2101 66.1867 43.1358C66.3372 43.0243 66.0739 41.984 65.6601 40.7951C65.2463 39.569 64.682 38.6773 64.3811 38.6773C64.0802 38.6773 63.5159 39.569 63.0645 40.7208V40.7208ZM66.7886 40.9066C66.7886 42.6156 66.9014 43.1358 67.3529 43.1358C67.729 43.1358 67.9171 42.7271 67.9171 41.9097V40.7208C69.3842 42.5785 69.9484 43.1358 70.1741 43.1358C70.3998 43.1358 70.5503 42.1326 70.5503 40.9066C70.5503 39.1603 70.4374 38.6773 69.986 38.6773C69.6099 38.6773 69.4218 39.0117 69.4218 39.6805L69.3842 40.7208C68.1052 39.1232 67.5033 38.6773 67.24 38.6773C66.9391 38.6773 66.7886 39.3461 66.7886 40.9066V40.9066ZM71.4907 38.9002C71.3403 39.0489 71.1898 39.5319 71.2274 40.0149C71.265 40.5722 71.6412 41.018 72.2431 41.2781C72.7697 41.4639 73.1835 41.7239 73.1835 41.8354C73.1835 41.9097 72.8073 41.984 72.3183 41.9469C71.8669 41.9469 71.3026 41.9469 71.1146 41.9469C70.8888 41.9469 71.0017 42.2441 71.3026 42.5785C71.6036 42.8757 72.2054 43.1358 72.6192 43.1358C73.0706 43.1358 73.5973 42.9129 73.8606 42.6528C74.1239 42.3927 74.312 41.984 74.312 41.7239C74.312 41.4639 73.7477 40.9437 73.0706 40.535L71.8669 39.7919C73.5597 39.7919 73.8982 39.6062 73.823 39.3089C73.7477 39.0489 73.2587 38.7888 72.7697 38.7516C72.2431 38.6773 71.6788 38.7516 71.4907 38.9002V38.9002ZM75.2524 39.2346C74.9139 39.569 74.6505 40.3121 74.6505 40.9066C74.6882 41.501 74.9515 42.2441 75.2524 42.5785C75.5534 42.8757 76.2305 43.1358 76.7195 43.1358C77.2461 43.1358 77.9232 42.8757 78.2242 42.5785C78.5627 42.2441 78.826 41.501 78.826 40.9066C78.826 40.2749 78.5627 39.5319 78.2618 39.2346C77.9608 38.9002 77.2837 38.6773 76.7947 38.6773C76.2681 38.6773 75.591 38.9374 75.2524 39.2346ZM75.8167 40.9066C75.8167 39.9406 75.9671 39.7919 76.7571 39.7919C77.5471 39.7919 77.6975 39.9406 77.6975 40.9066C77.6975 41.8354 77.5471 42.0212 76.7571 42.0212C75.9671 42.0212 75.8167 41.8354 75.8167 40.9066ZM79.616 40.8694C79.5784 42.1326 79.7288 43.1358 79.9545 43.1358C80.1426 43.1358 80.3307 42.7643 80.3307 42.3927C80.3307 41.984 80.4812 41.6496 80.7069 41.6496C80.895 41.6496 81.2335 41.984 81.4592 42.3927C81.6473 42.7643 82.0987 43.1358 82.3997 43.1358C82.8511 43.1358 82.8887 42.95 82.5877 42.3927C82.3244 41.8354 82.362 41.4267 82.663 40.8694C83.0391 40.3492 83.0391 39.9777 82.7382 39.4947C82.5125 39.1232 81.7602 38.7888 80.9702 38.7145L79.616 38.603V40.8694ZM80.3683 40.3492C80.3683 40.052 80.7069 39.7919 81.1207 39.7919C81.5345 39.7919 81.7978 39.9777 81.7225 40.2378C81.6473 40.4979 81.3088 40.7579 80.9702 40.7951C80.6317 40.8694 80.3683 40.6465 80.3683 40.3492ZM85.2962 39.1975C85.0705 39.5319 84.9576 40.052 85.0705 40.3492C85.1457 40.6465 85.6723 41.0552 86.199 41.2781C86.688 41.4639 87.1394 41.7239 87.1394 41.8354C87.1394 41.9469 86.688 41.984 86.1237 41.9097C85.5595 41.8726 85.0705 42.0212 84.9952 42.2813C84.92 42.5413 85.2585 42.8757 85.7099 42.9872C86.199 43.1358 86.8761 43.1358 87.2146 42.9872C87.5908 42.8386 87.8917 42.3927 87.8917 41.8354C87.8917 41.1666 87.5908 40.7579 86.8385 40.4607L85.8228 40.0149C87.4403 39.8291 87.8165 39.6062 87.7413 39.3089C87.7036 39.086 87.2146 38.8259 86.688 38.7516C86.1613 38.6773 85.5595 38.9002 85.2962 39.1975V39.1975ZM90.5625 39.1975C90.3368 39.5319 90.224 40.052 90.3368 40.3492C90.4121 40.6465 90.9387 41.0552 91.4654 41.2781C91.9544 41.4639 92.4058 41.7239 92.4058 41.8354C92.4058 41.9469 91.9544 41.984 91.4277 41.9097C90.9011 41.8726 90.3368 41.984 90.1864 42.1698C90.0735 42.3184 90.1864 42.6156 90.5249 42.8014C90.8259 42.9872 91.4653 43.1358 91.9168 43.1358C92.4058 43.1358 92.9324 42.8386 93.0829 42.467C93.271 42.1326 93.3462 41.6125 93.271 41.3524C93.1957 41.1295 92.6691 40.7208 92.1048 40.4607L91.0892 40.0149C92.7067 39.8291 93.0829 39.6062 93.0076 39.3089C92.97 39.086 92.481 38.8259 91.9544 38.7516C91.4277 38.6773 90.8259 38.9002 90.5625 39.1975ZM93.5343 39.2346C93.5343 39.5319 93.76 39.7919 94.0985 39.7919C94.5123 39.7919 94.6628 40.2378 94.6628 41.4639C94.6628 42.69 94.8133 43.1358 95.2271 43.1358C95.6408 43.1358 95.7913 42.69 95.7913 41.4639C95.7913 40.2378 95.9418 39.7919 96.3556 39.7919C96.6565 39.7919 96.9198 39.5319 96.9198 39.2346C96.9198 38.8259 96.4684 38.6773 95.2271 38.6773C93.9481 38.6773 93.5343 38.8259 93.5343 39.2346V39.2346ZM97.296 40.9066V43.1358C99.7787 42.9872 100.456 42.7643 100.381 42.5785C100.343 42.3556 99.8916 42.1698 99.3649 42.0955C98.8383 42.0583 98.4245 41.8354 98.4245 41.6496C98.4245 41.4267 98.8383 41.2781 99.3649 41.2781C99.8539 41.2781 100.305 41.0923 100.305 40.9066C100.305 40.6836 99.8539 40.535 99.3649 40.535C98.8383 40.535 98.4245 40.3492 98.4245 40.1635C98.4245 39.9406 98.8383 39.7919 99.3649 39.7919C99.9292 39.7919 100.305 39.569 100.305 39.2346C100.305 38.8259 99.8916 38.6773 98.8007 38.6773H97.296V40.9066ZM101.058 40.9066C101.058 42.5042 101.171 43.0986 101.509 42.9872C101.772 42.9129 101.96 42.4299 101.885 41.8726C101.848 41.3524 101.96 40.9066 102.186 40.9066C102.374 40.9066 102.638 41.2038 102.75 41.5382C102.939 42.1326 102.976 42.1326 103.465 41.4639C103.992 40.7579 104.029 40.7579 104.029 41.9097C104.067 42.7271 104.218 43.1358 104.631 43.1358C105.045 43.1358 105.196 42.6528 105.196 40.9066C105.196 39.1603 105.045 38.6773 104.631 38.6773C104.293 38.6773 103.841 39.0489 103.616 39.4947L103.202 40.3492C102.261 39.0117 101.772 38.6402 101.509 38.6402C101.208 38.6773 101.058 39.3832 101.058 40.9066ZM105.948 40.9066V43.1358C107.979 42.9872 108.581 42.7643 108.581 42.5785C108.581 42.3556 108.167 42.1698 107.641 42.0955C106.775 42.0212 106.7 41.8726 106.7 40.3492C106.7 39.4204 106.512 38.6773 106.324 38.6773C106.098 38.6773 105.948 39.6805 105.948 40.9066ZM109.333 40.9066V43.1358C111.929 43.1358 112.343 42.9872 112.343 42.5785C112.343 42.2069 111.967 42.0212 111.214 42.0212C110.575 42.0212 110.086 41.8354 110.086 41.6496C110.086 41.4267 110.5 41.2781 111.026 41.2781C111.515 41.2781 111.967 41.0923 111.967 40.9066C111.967 40.6836 111.515 40.535 111.026 40.535C110.462 40.535 110.123 40.3492 110.199 40.052C110.274 39.8291 110.763 39.569 111.327 39.4947C111.891 39.4576 112.343 39.2346 112.343 39.0489C112.343 38.8259 111.666 38.6773 110.838 38.6773H109.333V40.9066ZM112.869 40.4236C112.719 41.4267 112.719 42.4299 112.832 42.6528C112.982 42.9129 113.246 43.1358 113.471 43.1358C113.659 43.1358 113.847 42.8014 113.847 42.3927C113.847 41.984 113.96 41.6496 114.111 41.6496C114.261 41.6496 114.6 41.984 114.863 42.3927C115.126 42.8014 115.578 43.1358 115.916 43.1358C116.33 43.1358 116.368 42.95 116.104 42.3927C115.854 41.8973 115.854 41.4019 116.104 40.9066C116.293 40.4979 116.481 40.0892 116.481 39.9777C116.481 39.8662 116.217 39.5319 115.916 39.2346C115.578 38.9374 114.863 38.6773 114.224 38.6773C113.208 38.6773 113.133 38.7888 112.869 40.4236V40.4236ZM113.847 40.1635C113.847 39.7548 113.96 39.4204 114.111 39.4204C114.261 39.4204 114.637 39.569 114.976 39.7548C115.277 39.9406 115.39 40.2749 115.239 40.4979C115.089 40.7208 114.713 40.9066 114.412 40.9066C114.073 40.9066 113.847 40.5722 113.847 40.1635ZM120.43 38.9002C120.242 39.0489 120.13 39.569 120.167 40.052C120.205 40.5722 120.581 41.0552 121.183 41.2781C121.672 41.4639 122.123 41.7239 122.123 41.8354C122.123 41.9469 121.672 41.984 121.183 41.9097C120.506 41.8726 120.242 41.984 120.318 42.3927C120.393 42.69 120.844 42.9872 121.371 43.0615C121.86 43.0986 122.499 42.95 122.8 42.69C123.064 42.4299 123.252 41.984 123.252 41.7239C123.252 41.501 122.687 40.9437 122.01 40.535L120.807 39.7919C122.462 39.7919 122.8 39.6062 122.725 39.3089C122.687 39.086 122.198 38.8259 121.672 38.7516C121.183 38.6773 120.619 38.7516 120.43 38.9002ZM124.079 40.9066C123.365 42.7643 123.327 43.1358 123.816 43.1358C124.117 43.1358 124.455 42.8757 124.568 42.5785C124.644 42.2813 125.057 42.0212 125.396 42.0212C125.772 42.0583 126.261 42.3184 126.487 42.69C126.75 43.0243 127.089 43.173 127.239 43.0243C127.427 42.8757 127.202 41.8726 126.788 40.7951C126.336 39.7176 125.734 38.8259 125.471 38.7516C125.133 38.6773 124.606 39.4576 124.079 40.9066ZM128.142 40.9066C128.142 42.1326 128.292 43.1358 128.518 43.1358C128.706 43.1358 128.894 42.5785 128.894 41.9097V40.7208C130.474 42.5785 131.076 43.1358 131.227 43.1358C131.377 43.1358 131.527 42.1326 131.527 40.9066C131.527 39.6805 131.339 38.6773 131.151 38.6773C130.926 38.6773 130.775 39.2346 130.738 39.8662V41.0923C129.158 39.1975 128.556 38.6773 128.405 38.6773C128.255 38.6773 128.142 39.6805 128.142 40.9066ZM135.402 39.4947C135.515 39.9777 135.891 40.9809 136.192 41.7239C136.531 42.5042 136.982 43.0986 137.208 43.0243C137.433 42.9872 137.922 42.0955 138.336 41.0923C138.712 40.052 139.051 39.1232 139.051 38.9374C139.051 38.7888 138.788 38.6773 138.487 38.6773C138.148 38.6773 137.847 39.1232 137.734 39.7919C137.621 40.3864 137.358 40.9066 137.17 40.9066C136.944 40.9066 136.681 40.3864 136.606 39.7919C136.455 39.086 136.192 38.6773 135.778 38.6773C135.327 38.6773 135.214 38.9002 135.402 39.4947ZM139.502 40.7951L139.615 42.95C142.399 43.0986 142.813 42.9872 142.813 42.5785C142.813 42.2069 142.436 42.0212 141.684 42.0212C141.045 42.0212 140.556 41.8354 140.556 41.6496C140.556 41.4267 140.969 41.2781 141.496 41.2781C141.985 41.2781 142.436 41.0923 142.436 40.9066C142.436 40.6836 141.985 40.535 141.496 40.535C140.969 40.535 140.556 40.3492 140.556 40.1635C140.556 39.9406 141.007 39.7548 141.534 39.6805C142.098 39.6433 142.624 39.3832 142.662 39.1232C142.775 38.8259 142.286 38.6773 141.082 38.6773H139.389L139.502 40.7951ZM144.693 39.1975C144.693 39.5319 144.919 39.7548 145.258 39.7548C145.671 39.7548 145.822 40.2006 145.822 41.4267C145.822 42.5785 145.935 43.0615 146.273 42.9872C146.537 42.9129 146.8 42.1698 146.838 41.3153C146.913 40.2378 147.101 39.7548 147.515 39.7548C147.816 39.7548 148.079 39.5319 148.079 39.1975C148.079 38.7888 147.628 38.6402 146.386 38.6402C145.107 38.6402 144.693 38.7888 144.693 39.1975ZM150.524 39.3089C150.11 39.7176 149.847 40.4236 149.847 40.9066C149.885 41.4267 150.223 42.0955 150.599 42.467C150.975 42.8014 151.615 43.0986 152.029 43.0986C152.443 43.0986 153.007 42.95 153.345 42.7643C153.646 42.5785 153.759 42.2813 153.571 42.0955C153.421 41.9469 152.819 41.7983 152.254 41.7983C151.427 41.7983 151.276 41.6496 151.276 40.8694C151.276 40.0892 151.427 39.9406 152.405 39.9406C153.12 39.9406 153.533 39.7548 153.533 39.3832C153.533 39.0489 153.082 38.7888 152.367 38.7145C151.615 38.6402 150.975 38.8631 150.524 39.3089ZM157.859 40.7951C157.446 41.984 157.182 43.0243 157.295 43.0986C157.446 43.2101 157.747 43.0243 157.972 42.6528C158.198 42.3184 158.687 42.0212 159.063 42.0212C159.439 42.0212 159.815 42.2441 159.928 42.5413C160.004 42.8757 160.342 43.0986 160.681 43.0986C160.982 43.0986 161.245 43.0243 161.245 42.9129C161.245 42.8386 160.831 41.7983 160.38 40.6836C159.928 39.569 159.326 38.6402 159.101 38.6402C158.837 38.6402 158.273 39.6062 157.859 40.7951ZM163.314 38.9002C163.126 39.0489 163.013 39.5319 163.051 40.0149C163.088 40.5722 163.464 41.018 164.066 41.2409C164.555 41.4639 165.007 41.7239 165.007 41.7983C165.007 41.9097 164.668 41.9097 164.254 41.7983C163.84 41.7239 163.389 41.7983 163.314 41.984C163.201 42.2069 163.351 42.8014 163.69 43.2844L164.254 44.2133C165.684 42.95 166.097 42.1698 166.097 41.7239C166.097 41.1666 165.797 40.7579 165.082 40.4607C164.066 40.052 164.066 40.052 164.931 39.7919C165.383 39.6805 165.797 39.4204 165.759 39.1975C165.759 39.0117 165.27 38.7888 164.706 38.7145C164.141 38.6773 163.502 38.7516 163.314 38.9002ZM0.620292 40.7951C1.93689 40.8694 3.9682 40.8694 5.13433 40.7951C6.26284 40.7208 5.17195 40.6465 2.68923 40.6465C0.206505 40.6465 -0.73392 40.7208 0.620292 40.7951ZM132.28 42.5413C132.28 42.8757 132.468 43.0615 132.694 43.0243C132.919 42.9872 133.145 42.7271 133.183 42.467C133.183 42.2069 132.995 41.984 132.731 41.984C132.468 41.984 132.28 42.2441 132.28 42.5413V42.5413ZM154.098 42.5413C154.098 42.8757 154.323 43.0986 154.662 43.0986C154.963 43.0986 155.226 42.8757 155.226 42.5413C155.226 42.2441 154.963 41.984 154.662 41.984C154.323 41.984 154.098 42.2441 154.098 42.5413ZM161.621 42.5413C161.621 42.8757 161.809 43.0615 162.035 43.0243C162.261 42.9872 162.486 42.7271 162.524 42.467C162.524 42.2069 162.336 41.984 162.072 41.984C161.809 41.984 161.621 42.2441 161.621 42.5413V42.5413ZM166.511 42.5413C166.511 42.8757 166.737 43.0986 167.076 43.0986C167.376 43.0986 167.64 42.8757 167.64 42.5413C167.64 42.2441 167.376 41.984 167.076 41.984C166.737 41.984 166.511 42.2441 166.511 42.5413ZM37.8611 47.5571V49.4148C39.8924 49.4148 40.4943 49.2662 40.4943 49.0433C40.4943 48.8575 40.0429 48.6717 39.5539 48.6717C39.0272 48.6717 38.6135 48.5231 38.6135 48.3002C38.6135 48.1144 38.952 47.9287 39.3658 47.9287C39.7796 47.9287 40.1934 47.78 40.3062 47.5571C40.3815 47.3714 40.0429 47.1856 39.5539 47.1856C39.0272 47.1856 38.6135 47.037 38.6135 46.814C38.6135 46.6283 39.0272 46.4425 39.5539 46.4425C40.0429 46.4425 40.4943 46.2939 40.4943 46.071C40.4943 45.8852 39.8924 45.6994 39.1777 45.6994H37.8611V47.5571ZM41.2467 47.5571C41.2467 48.5974 41.3971 49.4148 41.6228 49.4148C41.8109 49.4148 41.999 48.8947 41.999 48.2259C41.999 47.2227 42.0742 47.1484 42.3752 47.6686C42.6761 48.1887 42.8266 48.2259 43.3156 47.8544C43.767 47.4828 43.8798 47.4828 43.8798 47.8544C43.8798 48.1144 43.9175 48.486 43.9551 48.6717C43.9927 48.8947 44.2184 49.1176 44.4065 49.1547C44.6322 49.1919 44.8203 48.4488 44.8955 47.4828C44.9707 46.1081 44.8579 45.6994 44.4441 45.6994C44.1055 45.6994 43.6918 46.1081 43.4661 46.554L43.0523 47.3714C42.2247 46.1081 41.8109 45.6994 41.6228 45.6994C41.3971 45.6994 41.2467 46.554 41.2467 47.5571V47.5571ZM45.7607 47.5571V49.4148C48.4315 49.3034 49.2591 49.1176 49.3719 48.969C49.4472 48.8204 49.9362 48.6717 50.4628 48.6717C50.9518 48.6717 51.4409 48.8947 51.5161 49.1547C51.5913 49.4148 51.7794 49.4891 51.8923 49.3405C52.0427 49.1919 51.817 48.3002 51.4032 47.3714C50.9895 46.4797 50.4628 45.6994 50.2747 45.6994C50.049 45.6994 49.5976 46.4425 49.2591 47.297C48.6948 48.7461 48.5444 48.8575 47.4535 48.7461C46.3626 48.6346 46.3249 48.5603 46.4002 47.1856C46.4754 46.3682 46.3249 45.6994 46.1369 45.6994C45.9112 45.6994 45.7607 46.554 45.7607 47.5571V47.5571ZM52.5318 47.3714C52.5318 48.3002 52.6822 49.1547 52.9079 49.2291C53.096 49.3405 53.3969 49.0804 53.5474 48.6717C53.8107 47.9658 53.8483 47.9658 54.6759 48.7832C55.1273 49.2291 55.6163 49.5263 55.7292 49.4148C55.8421 49.3405 55.5787 48.8204 55.2026 48.3002C54.4502 47.4085 54.4502 47.3714 55.2026 46.554C55.5787 46.1081 55.7668 45.6994 55.5411 45.6994C55.3154 45.6994 54.8264 45.9967 54.375 46.3682C53.6603 46.9998 53.6226 46.9998 53.6226 46.3682C53.6226 45.9967 53.3969 45.6994 53.096 45.6994C52.6822 45.6994 52.5318 46.1453 52.5318 47.3714ZM57.7981 47.5571C57.7981 48.5974 57.9486 49.4148 58.1743 49.4148C58.3624 49.4148 58.6257 49.0433 58.7386 48.5974L58.9266 47.7429C60.0928 49.0433 60.5818 49.4148 60.8075 49.4148C60.9956 49.4148 60.8451 48.969 60.4689 48.4117C59.8671 47.5943 59.8294 47.2599 60.168 46.6654C60.4313 46.2939 60.6194 45.8852 60.5818 45.7737C60.5442 45.6623 60.0928 45.9967 59.5285 46.4797L58.5129 47.3714C58.5129 46.1081 58.3624 45.6994 58.1743 45.6994C57.9486 45.6994 57.7981 46.554 57.7981 47.5571V47.5571ZM61.5598 46.1453C61.2589 46.4054 61.0708 46.9998 61.1084 47.4457C61.146 47.9287 61.4094 48.5603 61.7479 48.8575C62.0489 49.1919 62.5379 49.4148 62.8764 49.4148C63.1774 49.4148 63.7792 49.2662 64.193 49.0433C64.6444 48.8204 64.9454 48.3002 64.9454 47.6686C64.9454 47.1113 64.7197 46.4425 64.4563 46.1824C64.193 45.9223 63.5535 45.6994 63.0269 45.6994C62.5003 45.6994 61.8232 45.9223 61.5598 46.1453V46.1453ZM62.0865 46.8884C62.2369 46.6283 62.726 46.4425 63.1774 46.5168C63.7792 46.6283 64.0049 46.8884 64.0049 47.5571C64.0049 48.2631 63.7792 48.5231 63.1397 48.5974C62.6131 48.6346 62.1993 48.4488 62.0865 48.0401C61.936 47.6686 61.936 47.1484 62.0865 46.8884V46.8884ZM65.6977 47.5571C65.6977 48.5974 65.8482 49.4148 66.0739 49.4148C66.262 49.4148 66.45 48.8947 66.45 48.2259V46.9998C67.729 48.8947 68.2557 49.4148 68.4061 49.4148C68.5566 49.4148 68.7071 48.5974 68.7071 47.5571C68.7071 46.554 68.519 45.6994 68.3309 45.6994C68.1052 45.6994 67.9171 46.1824 67.9171 46.7397V47.7429C66.751 46.1824 66.262 45.6994 66.0739 45.6994C65.8482 45.6994 65.6977 46.554 65.6977 47.5571V47.5571ZM69.4594 46.814C69.4594 47.4457 69.6099 48.2631 69.8356 48.6717C70.0613 49.1176 70.5879 49.4148 71.1522 49.4148C71.7164 49.4148 72.2431 49.1176 72.4688 48.6717C72.6569 48.2631 72.8449 47.4457 72.8449 46.814C72.8449 46.2196 72.6192 45.6994 72.3935 45.6994C72.1678 45.6994 71.9421 46.331 71.9421 47.1113C71.9045 48.2259 71.754 48.486 71.1522 48.486C70.5503 48.486 70.3622 48.2259 70.287 47.1113C70.2494 46.331 70.0237 45.6994 69.8356 45.6994C69.6099 45.6994 69.4594 46.2196 69.4594 46.814V46.814ZM73.2211 46.071C73.2211 46.2939 73.4468 46.4425 73.7854 46.4425C74.1615 46.4425 74.3496 46.8884 74.3496 47.9287C74.3496 48.7461 74.5001 49.4148 74.7258 49.4148C74.9139 49.4148 75.102 48.7461 75.102 47.9287C75.102 46.8884 75.2524 46.4425 75.6662 46.4425C75.9671 46.4425 76.2305 46.2939 76.2305 46.071C76.2305 45.8852 75.5534 45.6994 74.7258 45.6994C73.8982 45.6994 73.2211 45.8852 73.2211 46.071ZM78.4875 46.1824C78.2618 46.4425 78.1113 47.1113 78.1865 47.7057C78.2242 48.3002 78.5251 48.969 78.8637 49.1547C79.1646 49.3777 79.8793 49.4148 80.4436 49.3034C81.2335 49.1176 81.4968 48.8204 81.4968 48.1144C81.4968 47.4457 81.2711 47.1856 80.7445 47.1856C80.3307 47.1856 79.9922 47.3714 79.9922 47.5571C79.9922 47.78 80.1426 47.9287 80.3683 47.9287C80.5564 47.9287 80.7445 48.1144 80.7445 48.3002C80.7445 48.5231 80.3307 48.6346 79.8793 48.5974C79.2398 48.5231 79.0517 48.2631 79.0517 47.5571C79.0517 46.814 79.2398 46.6283 80.0674 46.554C80.6317 46.5168 81.1207 46.2939 81.1207 46.071C81.1207 45.8852 80.6317 45.6994 80.0298 45.6994C79.4279 45.6994 78.7508 45.9223 78.4875 46.1824V46.1824ZM81.873 45.9967C81.873 46.1453 82.1363 46.5911 82.4373 46.9998C82.7382 47.4085 83.0015 48.1516 83.0015 48.5974C83.0015 49.0433 83.152 49.4148 83.3777 49.4148C83.5658 49.4148 83.7539 49.0804 83.7539 48.6717C83.7539 48.2631 84.0924 47.4457 84.5062 46.814C84.9952 46.1081 85.0705 45.7366 84.7695 45.7366C84.5062 45.7366 84.0924 46.0338 83.8291 46.3682C83.3777 46.9627 83.3401 46.9627 83.0015 46.3682C82.7758 45.9967 82.4373 45.6994 82.2492 45.6994C82.0235 45.6994 81.873 45.848 81.873 45.9967ZM85.6347 46.1453C85.3338 46.4054 85.1457 47.0741 85.1833 47.6314C85.2209 48.3002 85.5595 48.8204 86.0861 49.0804C86.5375 49.3034 87.3275 49.4148 87.7789 49.2662C88.3055 49.1547 88.7193 48.6717 88.8698 48.0401C88.9826 47.4828 88.945 46.7769 88.7193 46.4425C88.5312 46.1453 87.8917 45.848 87.2899 45.7737C86.688 45.7366 85.9357 45.8852 85.6347 46.1453V46.1453ZM86.1614 46.8884C86.3118 46.6283 86.8008 46.4425 87.2522 46.5168C87.8541 46.6283 88.0798 46.8884 88.0798 47.5571C88.0798 48.2631 87.8541 48.5231 87.2146 48.5974C86.688 48.6346 86.2742 48.4488 86.1614 48.0401C86.0109 47.6686 86.0109 47.1484 86.1614 46.8884V46.8884ZM91.6158 47.4828C91.202 48.4488 90.9763 49.3405 91.1268 49.4148C91.2396 49.5263 91.4277 49.4148 91.503 49.1547C91.5782 48.8947 92.0296 48.6717 92.481 48.6717C92.9324 48.6717 93.5343 48.8947 93.7976 49.1547C94.0609 49.4148 94.3619 49.5263 94.4371 49.4148C94.5499 49.3405 94.3242 48.4488 93.9105 47.4828C93.4967 46.5168 92.97 45.6994 92.7443 45.6994C92.5562 45.6994 92.0296 46.5168 91.6158 47.4828V47.4828ZM102.562 47.5571C102.562 48.5974 102.713 49.4148 102.939 49.4148C103.127 49.4148 103.39 49.0433 103.503 48.5974L103.691 47.7429C104.857 49.0433 105.346 49.4148 105.572 49.4148C105.76 49.4148 105.609 48.9318 105.196 48.3002C104.518 47.3342 104.481 47.1113 104.97 46.4425C105.271 46.0338 105.421 45.6994 105.308 45.6994C105.196 45.6994 104.707 46.1081 104.218 46.554L103.277 47.3714C103.277 46.1081 103.127 45.6994 102.939 45.6994C102.713 45.6994 102.562 46.554 102.562 47.5571ZM105.948 46.6283C105.948 47.1484 106.098 48.003 106.324 48.486C106.55 49.1176 106.964 49.4148 107.565 49.4148C108.017 49.4148 108.619 49.2291 108.882 48.969C109.108 48.7089 109.333 47.8915 109.333 47.1113C109.333 46.331 109.145 45.6994 108.882 45.6994C108.656 45.6994 108.431 46.331 108.431 47.1113C108.393 48.1144 108.205 48.5231 107.716 48.5974C107.189 48.6717 107.076 48.4117 107.076 47.1856C107.076 46.1453 106.888 45.6994 106.512 45.6994C106.136 45.6994 105.948 46.071 105.948 46.6283V46.6283ZM110.086 47.5571C110.086 48.5974 110.236 49.4148 110.462 49.4148C110.65 49.4148 110.838 49.1919 110.838 48.8575C110.838 48.5603 110.951 48.3374 111.101 48.3374C111.252 48.3374 111.703 48.6346 112.042 48.969C112.418 49.3405 112.832 49.4891 112.982 49.3405C113.133 49.1919 113.058 48.8575 112.832 48.5974C112.493 48.2631 112.493 47.9658 112.794 47.5571C113.02 47.2599 113.095 46.7397 112.945 46.3682C112.794 45.9223 112.305 45.6994 111.402 45.6994H110.086V47.5571ZM110.838 46.9998C110.838 46.7026 111.177 46.4425 111.59 46.4425C112.004 46.4425 112.268 46.6654 112.192 46.9255C112.117 47.1856 111.779 47.4457 111.44 47.4828C111.101 47.52 110.838 47.3342 110.838 46.9998ZM113.471 46.814C113.471 47.4457 113.622 48.2631 113.847 48.6717C114.036 49.1176 114.6 49.4148 115.089 49.4148C115.54 49.4148 116.142 49.2291 116.405 48.969C116.631 48.7089 116.857 47.8915 116.857 47.1113C116.857 46.331 116.669 45.6994 116.405 45.6994C116.18 45.6994 115.954 46.331 115.954 47.1113C115.916 48.1144 115.728 48.5231 115.239 48.5974C114.713 48.6717 114.6 48.4117 114.6 47.1856C114.6 46.1453 114.412 45.6994 114.036 45.6994C113.659 45.6994 113.471 46.071 113.471 46.814V46.814ZM117.609 47.5571V49.4148C119.64 49.4148 120.242 49.2662 120.242 49.0433C120.242 48.8575 119.791 48.6717 119.302 48.6717C118.437 48.6717 118.362 48.5231 118.362 47.1856C118.362 46.3682 118.173 45.6994 117.985 45.6994C117.76 45.6994 117.609 46.554 117.609 47.5571ZM120.619 47.3714C120.619 48.8575 120.694 49.0804 121.559 49.2291C122.048 49.3405 122.763 49.2291 123.064 48.969C123.402 48.6717 123.628 47.9287 123.628 47.1113C123.628 46.331 123.44 45.6994 123.214 45.6994C122.951 45.6994 122.763 46.331 122.725 47.1113C122.687 48.1144 122.499 48.5231 122.01 48.5974C121.484 48.6717 121.371 48.4117 121.371 47.1856C121.371 46.3682 121.183 45.6994 120.995 45.6994C120.769 45.6994 120.619 46.4797 120.619 47.3714V47.3714ZM127.39 46.814C127.39 47.4457 127.54 48.2631 127.766 48.6717C127.954 49.1176 128.518 49.4148 129.007 49.4148C129.459 49.4148 130.06 49.2291 130.324 48.969C130.549 48.7089 130.775 47.8915 130.775 47.1113C130.775 46.331 130.587 45.6994 130.324 45.6994C130.098 45.6994 129.872 46.331 129.872 47.1113C129.835 48.1144 129.647 48.5231 129.158 48.5974C128.631 48.6717 128.518 48.4117 128.518 47.1856C128.518 46.1453 128.33 45.6994 127.954 45.6994C127.578 45.6994 127.39 46.071 127.39 46.814V46.814ZM131.527 47.5571V49.4148C133.596 49.2662 134.085 48.969 134.499 48.2631C135.026 47.3342 135.026 47.1856 134.349 46.4797C133.897 46.0338 133.107 45.6994 132.543 45.6994C131.565 45.6994 131.527 45.8109 131.527 47.5571V47.5571ZM132.28 47.5571C132.28 46.7026 132.43 46.4425 133.032 46.4425C133.446 46.4425 133.86 46.7397 133.973 47.1113C134.048 47.4828 133.935 47.9658 133.672 48.2259C133.408 48.486 132.995 48.7089 132.731 48.7089C132.468 48.7089 132.28 48.1887 132.28 47.5571ZM135.252 47.1113C135.252 47.8915 135.477 48.7089 135.741 48.969C136.004 49.2291 136.606 49.452 137.057 49.452C137.509 49.4148 138.073 49.0804 138.299 48.6717C138.487 48.2631 138.675 47.4457 138.675 46.814C138.675 46.071 138.487 45.6994 138.11 45.6994C137.697 45.6994 137.546 46.1453 137.546 47.1856C137.546 48.4117 137.396 48.6717 136.869 48.5974C136.418 48.5231 136.192 48.1144 136.117 47.1113C136.079 46.331 135.853 45.6994 135.665 45.6994C135.44 45.6994 135.289 46.331 135.252 47.1113V47.1113ZM139.051 47.3714C139.051 48.3002 139.201 49.1547 139.427 49.2291C139.615 49.3405 139.954 49.1547 140.179 48.7832C140.518 48.1516 140.556 48.1516 141.007 48.7832C141.27 49.1176 141.722 49.4148 142.06 49.4148C142.549 49.452 142.549 49.3777 142.06 48.8575C141.571 48.3745 141.571 48.1144 141.947 47.5571C142.324 46.9627 142.324 46.7026 141.947 46.2567C141.684 45.9223 140.932 45.6994 140.255 45.6994C139.051 45.6994 139.051 45.7366 139.051 47.3714ZM140.179 46.9998C140.179 46.7026 140.367 46.4425 140.631 46.4425C140.894 46.4425 141.082 46.6654 141.082 46.9255C141.045 47.1856 140.819 47.4457 140.593 47.4828C140.367 47.52 140.179 47.3342 140.179 46.9998V46.9998Z" fill="#1D1D26"/>
<path d="M41.0209 10.143C43.0899 8.99126 45.7231 7.65372 46.8516 7.20787C48.3186 6.57625 49.4095 6.39048 50.6133 6.50194C51.5537 6.57625 54.6759 7.20787 57.5724 7.83949C60.4689 8.47111 63.8545 9.43711 65.0958 9.92011C66.3372 10.4031 67.9171 11.1833 68.5566 11.6664C69.2337 12.1122 69.7979 12.7438 69.7979 13.041C69.7979 13.3383 69.3465 14.1557 68.8575 14.7873C68.3309 15.4561 67.6161 16.0134 67.2776 16.0134C66.9014 15.9762 65.9986 15.7904 65.2839 15.5304C64.5692 15.2703 62.1993 14.0442 60.0175 12.7438C57.3843 11.2081 55.6665 10.4403 54.864 10.4403C54.1869 10.4403 52.9831 10.1802 52.2308 9.88296C51.4408 9.54857 50.5004 9.32565 50.1619 9.32565C49.7857 9.32565 49.0333 9.62288 48.4691 10.0316C47.8672 10.4031 44.2184 12.4466 40.2686 14.5272C36.3188 16.6078 32.4819 18.7999 31.7295 19.3944C30.9396 19.9888 29.9992 20.4347 29.6606 20.3604C29.2844 20.3232 28.9459 19.9517 28.8706 19.543C28.7954 19.0972 29.2468 18.3541 29.9992 17.611C30.6763 16.9794 32.5947 15.4932 34.2499 14.3414C35.905 13.1897 38.952 11.2948 41.0209 10.143Z" fill="#1D1D26"/>
<path d="M33.1214 19.7288C33.5352 19.2458 34.5508 18.3912 35.3408 17.8339C36.1684 17.2395 37.0336 16.7565 37.3345 16.7565C37.673 16.7565 37.8611 17.7596 38.0116 20.3976C38.1245 22.3667 38.3878 24.2616 38.5759 24.5588C38.8768 25.0047 40.1934 25.1161 46.1745 25.1533C50.1619 25.1904 55.8797 25.3019 58.889 25.4134C61.8984 25.4877 64.7197 25.6734 65.1711 25.822C65.961 26.045 66.0363 26.2679 66.0363 29.1288C66.0363 31.0236 65.8858 32.3612 65.5849 32.6584C65.3215 32.9185 64.1178 33.1042 62.5003 33.1042C61.0332 33.1042 58.8138 33.29 57.5724 33.4758C56.3311 33.6987 51.2528 33.8102 46.2873 33.773C41.3219 33.7358 36.2812 33.6987 35.0775 33.6987C33.2719 33.6615 32.8205 33.5129 32.4819 32.9185C32.2186 32.4355 32.1434 30.0204 32.2186 26.3794C32.3691 21.1778 32.4443 20.4719 33.1214 19.7288Z" fill="#1D1D26"/>
</svg>
