<svg width="82" height="50" viewBox="0 0 82 50" fill="none" xmlns="http://www.w3.org/2000/svg">
<path fill-rule="evenodd" clip-rule="evenodd" d="M40.71 1.03345C39.8733 1.61404 38.4894 2.80749 37.7171 3.71064C36.9125 4.58153 35.8505 6.19429 35.3356 7.25871C34.8529 8.32314 34.338 9.74237 34.1771 10.4197C33.984 11.4519 34.0484 11.6454 34.4345 11.4842C34.692 11.3551 35.1747 10.6778 35.4643 9.90364C35.754 9.16177 36.5907 7.90382 37.2665 7.09744C37.9745 6.29106 39.1331 5.3234 39.8733 4.90408L41.1927 4.19446C43.3167 6.09752 43.542 6.58135 43.7351 8.00058C43.8316 8.93599 44.0247 9.67786 44.1534 9.67786C44.3143 9.67786 44.604 9.74237 44.7971 9.83913C45.0867 9.96815 45.3442 9.51658 45.6016 8.54892C45.8269 7.74254 46.02 6.61361 46.02 6.03301C46.02 5.48467 45.8591 4.45251 45.6982 3.77515C45.5051 3.13004 44.8293 2.00111 44.1534 1.29149C43.5098 0.549621 42.8018 -0.0309737 42.6409 0.00128159C42.4478 0.00128159 41.5789 0.48511 40.71 1.03345ZM0 36.611C0 39.1269 0.0965454 39.6752 0.482727 39.6752C0.836727 39.6752 0.997636 39.2237 1.02982 37.8044L1.12636 35.9659C2.51018 38.3528 2.96073 39.0301 3.05727 39.0301C3.15382 39.0301 3.60436 38.3528 4.08709 37.4819L4.98818 35.9659C5.14909 39.4172 5.24563 39.6752 5.79272 39.6752C6.40418 39.6752 6.43636 39.4495 6.43636 36.611C6.43636 33.7725 6.40418 33.5467 5.79272 33.5467C5.34218 33.5467 4.82727 34.0951 4.15145 35.224L3.15382 36.9335C1.54473 34.2564 0.901091 33.5467 0.547091 33.5467C0.0643636 33.5467 0 33.9016 0 36.611ZM76.818 34.2564C76.6892 34.6757 76.5927 35.7724 76.5927 36.6755C76.5927 37.6109 76.7214 38.6753 76.9145 39.0301C77.1291 39.4602 77.5582 39.6752 78.2018 39.6752C78.942 39.6752 79.1672 39.8043 79.1672 40.3203C79.1672 40.6752 79.3603 41.03 79.5534 41.0945C79.7787 41.1912 79.5856 41.2558 79.0707 41.2558C78.5558 41.288 78.234 41.4493 78.2983 41.6751C78.3627 41.9009 78.9098 42.0944 79.5212 42.0944C80.4867 42.0944 80.6154 41.9976 80.6798 41.1912C80.7441 40.6106 80.5832 40.2451 80.1971 40.0946C79.7787 39.901 79.9074 39.8043 80.7763 39.6752C81.8061 39.514 81.9027 39.4172 81.9671 38.2883C82.0636 37.2884 81.9671 37.0948 81.42 37.0948C80.9909 37.0948 80.7763 37.3099 80.7763 37.7399C80.7763 38.2883 80.5511 38.385 79.4891 38.385H78.2018V34.837C80.4223 34.837 80.7763 34.966 80.7763 35.3208C80.7763 35.5788 81.066 35.8046 81.42 35.8046C81.9349 35.8046 82.0636 35.6111 81.9671 34.7402L81.9027 33.708C77.1398 33.5145 76.9789 33.5467 76.818 34.2564ZM5.69618 47.5778C5.05254 48.739 4.50545 49.7389 4.50545 49.8356C4.50545 49.9324 4.79509 49.9969 5.14909 49.9969C5.50309 49.9969 5.85709 49.7711 5.95363 49.5131C6.05018 49.1905 6.56509 49.0293 7.56272 49.0293C8.56036 49.0293 9.07527 49.1905 9.17181 49.5131C9.26836 49.7711 9.68672 49.9969 10.1373 49.9969H10.9418C8.59254 46.094 8.01327 45.4812 7.53054 45.4812C7.04782 45.4812 6.53291 46.0618 5.69618 47.5778ZM7.14436 47.3842C7.33745 47.0294 7.53054 46.7714 7.56272 46.8359C7.56272 46.8682 7.788 47.1907 8.04545 47.5133C8.496 48.0294 8.46382 48.0939 7.62709 48.0616C6.85472 48.0616 6.79036 47.9971 7.14436 47.3842ZM15.93 45.6747C15.8013 45.8037 15.6725 46.3198 15.7047 46.8359C15.7369 47.3842 16.0265 47.8681 16.4127 48.0616C16.7667 48.2229 17.7 48.3842 18.5045 48.3842C19.3091 48.3842 19.9527 48.5132 19.9527 48.7067C19.9527 48.868 19.2125 49.0293 18.3436 49.0293C17.4425 49.0293 16.7345 48.868 16.7345 48.7067C16.7345 48.5132 16.5093 48.4487 16.2518 48.5454C15.9944 48.6422 15.7691 48.997 15.7691 49.3518C15.7691 49.9324 15.9622 49.9969 18.2471 49.9002L20.7573 49.8356V47.2552C17.7 47.1262 17.0564 46.9649 17.0564 46.6746C17.0564 46.3843 17.5069 46.3521 18.9873 46.5134C20.7251 46.7391 20.9182 46.7069 20.8216 46.1908C20.7573 45.7392 20.3389 45.6102 18.4724 45.5457C17.2494 45.5134 16.0909 45.5457 15.93 45.6747ZM27.0971 47.6423C26.0351 49.4486 25.9064 49.8679 26.3247 49.9324C26.6144 49.9969 27.0971 49.8034 27.3545 49.5454C27.612 49.2551 28.3522 49.0293 28.9636 49.0293C29.6073 48.997 30.3153 49.2228 30.5727 49.5131C30.8302 49.8034 31.3129 50.0292 31.6025 49.9969C31.9243 49.9969 32.1818 49.9002 32.1496 49.7389C32.1496 49.6099 31.6025 48.6422 30.9267 47.5778C30.1865 46.4166 29.4464 45.6102 29.0602 45.5457C28.5774 45.4812 28.1269 45.965 27.0971 47.6423ZM28.6418 47.1585C28.9636 46.8682 29.1245 46.8682 29.3498 47.1907C29.4785 47.3842 29.6073 47.6745 29.6073 47.8036C29.6073 47.9648 29.3176 48.0616 28.9636 48.0616C28.6096 48.0616 28.2878 47.9326 28.2556 47.8036C28.2234 47.6745 28.3844 47.3842 28.6418 47.1585ZM37.3309 47.7391C37.3309 49.7711 37.3953 49.9969 37.9745 49.9969C38.4894 49.9969 38.6182 49.7389 38.6825 48.7067L38.7791 47.4165C41.2571 49.4163 42.2547 49.9969 42.5443 49.9969C43.0593 49.9969 43.1236 49.6744 43.1236 47.7391C43.1236 45.707 43.0593 45.4812 42.48 45.4812C41.9329 45.4812 41.8363 45.707 41.8363 46.7714C41.8363 47.481 41.772 48.0616 41.6754 48.0616C41.5789 48.0616 40.8387 47.481 39.9698 46.7714C39.1331 46.0618 38.1998 45.4812 37.878 45.4812C37.3953 45.4812 37.3309 45.8037 37.3309 47.7391ZM49.0773 45.6747C48.9485 45.8037 48.8198 46.3198 48.852 46.8359C48.8842 47.3842 49.1738 47.8681 49.56 48.0616C49.914 48.2229 50.8473 48.3842 51.6518 48.3842C52.4563 48.3842 53.1 48.5132 53.1 48.7067C53.1 48.868 52.3598 49.0293 51.4909 49.0293C50.5898 49.0293 49.8818 48.868 49.8818 48.7067C49.8818 48.5132 49.6565 48.4487 49.3991 48.5454C49.1416 48.6422 48.9163 48.997 48.9163 49.3518C48.9163 49.9324 49.1416 49.9969 51.4909 49.9969H54.0654L53.9045 47.2552C50.8473 47.1262 50.2036 46.9649 50.2036 46.6746C50.2036 46.3843 50.6863 46.3521 52.1989 46.5134C53.9689 46.6746 54.1942 46.6424 54.0654 46.1908C53.9367 45.7715 53.4218 45.6102 51.6196 45.5457C50.3967 45.5134 49.2382 45.5457 49.0773 45.6747ZM59.9547 45.9328C59.8582 46.1585 59.826 47.1585 59.8903 48.0939L60.0191 49.8356C64.6854 49.9969 65.5543 49.9002 65.7152 49.6099C65.844 49.3841 65.9727 48.5777 65.9727 47.8036C65.9727 47.0617 65.9083 46.2231 65.8118 45.965C65.6831 45.578 65.0716 45.4812 62.9154 45.4812C60.888 45.4812 60.1156 45.6102 59.9547 45.9328ZM61.1454 46.4488H64.3636V49.0293H61.1454V47.7391V46.4488ZM71.7654 47.7391C71.7654 49.7711 71.8298 49.9969 72.4091 49.9969C72.8918 49.9969 73.0527 49.7711 73.0527 49.1905C73.0527 48.739 73.2458 48.3842 73.4389 48.3842C73.6642 48.3842 74.2112 48.739 74.6618 49.1905C75.1767 49.7389 75.7882 49.9969 76.4318 49.9969L77.3972 49.9647C75.4663 48.4809 75.4663 48.4487 76.1743 48.2551C76.7858 48.0939 76.9145 47.8681 76.818 46.8359L76.7536 45.6425L71.7976 45.4489L71.7654 47.7391ZM73.0205 46.9649C73.0205 46.6101 73.4067 46.4811 74.3078 46.4811C75.2411 46.4811 75.5951 46.6101 75.5951 46.9649C75.5951 47.2875 75.2411 47.4488 74.3078 47.4488C73.4067 47.4488 73.0205 47.2875 73.0205 46.9649ZM38.4251 11.0003C37.5562 11.1616 36.0436 11.7099 35.0782 12.1938L33.3403 13.0969C33.63 18.29 33.8231 19.2254 34.4989 20.5156C34.9494 21.3865 35.6896 22.4832 36.1723 22.9348L37.0091 23.7411C38.7791 21.9671 39.9376 20.6124 40.7422 19.548C41.5467 18.4835 42.6087 16.8063 43.0914 15.8386C43.6063 14.8387 44.1534 13.484 44.3465 12.7744C44.5396 12.0647 44.604 11.3874 44.4753 11.2584C44.3465 11.1293 43.2845 10.9681 42.126 10.8713C40.9996 10.7745 39.3262 10.839 38.4251 11.0003ZM38.586 12.9679C39.3905 12.8066 40.2273 12.7421 40.4525 12.8066C40.6778 12.8711 41.064 12.9356 41.3214 12.9356C41.6111 12.9356 41.8042 13.0969 41.8042 13.3227C41.8042 13.5485 41.3858 14.6129 40.9031 15.6773C40.3882 16.7418 39.4549 18.2255 38.8113 18.9674C38.1676 19.7092 37.4918 20.3543 37.2987 20.3543C37.1378 20.3543 36.6873 19.7092 36.3011 18.9674C35.9149 18.1932 35.5931 16.9353 35.5931 16.0321C35.5609 14.7097 35.6574 14.3549 36.3333 13.8388C36.7838 13.5162 37.8136 13.0969 38.586 12.9679ZM45.8913 12.6776C45.7947 13.0647 45.7303 13.4195 45.7625 13.4195C45.8269 13.4517 46.4062 13.8065 47.1142 14.2258C47.8222 14.6774 48.7876 15.6128 49.2703 16.3224C49.7853 17.0321 50.268 18.0965 50.3645 18.7416C50.4611 19.3544 50.3967 20.4834 50.2036 21.2252C50.0105 21.9671 49.6243 22.7412 49.3025 22.9025C48.9807 23.0638 47.4682 23.4509 45.9556 23.7734C43.5098 24.2895 42.8983 24.3217 41.1927 23.9669C39.3905 23.6121 39.1974 23.6121 38.4251 24.225L37.6205 24.8701C39.7445 26.6764 41.0962 27.5473 41.9651 27.9666C42.8662 28.3859 44.3787 28.8697 45.3442 29.0955C46.3418 29.2891 48.2727 29.3858 49.6887 29.2891C51.1047 29.2245 53.1965 28.8697 54.3229 28.5472L56.3825 27.9343C56.0285 25.1604 55.578 23.2896 55.1596 21.9671C54.7412 20.6124 53.9367 18.8061 53.3896 17.9352C52.8425 17.0321 51.9093 15.8386 51.3622 15.258C50.8151 14.6452 49.6887 13.7743 48.8842 13.2582C48.1118 12.7421 47.1463 12.2583 46.7923 12.1293C46.2453 11.968 46.0522 12.097 45.8913 12.6776ZM30.4762 15.4193C29.8325 16.0967 28.8027 17.5159 28.1591 18.5803C27.5154 19.6447 26.7109 21.3865 26.3891 22.4509C26.0351 23.5154 25.6489 24.8701 25.5524 25.5152C25.3593 26.5151 25.4236 26.6764 26.2604 27.0634C26.8396 27.3215 27.966 27.4505 29.2533 27.3537C30.6371 27.2892 31.9565 26.9667 33.1151 26.4183C34.1127 25.9668 35.1747 25.3539 35.5287 25.0959C36.0758 24.6766 36.108 24.5153 35.7862 24.096C35.4322 23.6121 35.2713 23.6121 34.2414 24.0637C33.63 24.3217 32.6002 24.5475 31.9243 24.5475C31.2485 24.5475 30.4118 24.354 30.0578 24.096C29.7038 23.8702 29.3176 23.1928 29.1889 22.6445C29.0602 22.0961 29.0924 20.9995 29.2854 20.2576C29.4785 19.5157 30.1865 18.1287 30.8945 17.1933C31.6025 16.2579 32.1496 15.2258 32.1496 14.871C32.1496 14.5161 32.0531 14.2258 31.8922 14.2258C31.7634 14.2258 31.1198 14.7419 30.4762 15.4193ZM51.7805 31.9662C51.7805 32.321 52.0058 32.6113 52.2632 32.6113C52.5529 32.6113 52.746 32.321 52.746 31.9662C52.746 31.5792 52.5529 31.3211 52.2632 31.3211C52.0058 31.3211 51.7805 31.5792 51.7805 31.9662ZM53.0678 31.9662C53.0678 32.3963 53.2823 32.6113 53.7114 32.6113C54.1405 32.6113 54.3551 32.3963 54.3551 31.9662C54.3551 31.5362 54.1405 31.3211 53.7114 31.3211C53.2823 31.3211 53.0678 31.5362 53.0678 31.9662ZM64.0096 31.9662C64.0096 32.3963 64.2242 32.6113 64.6532 32.6113C65.0823 32.6113 65.2969 32.3963 65.2969 31.9662C65.2969 31.5362 65.0823 31.3211 64.6532 31.3211C64.2242 31.3211 64.0096 31.5362 64.0096 31.9662ZM65.6187 31.9662C65.6187 32.3963 65.8332 32.6113 66.2623 32.6113C66.6914 32.6113 66.906 32.3963 66.906 31.9662C66.906 31.5362 66.6914 31.3211 66.2623 31.3211C65.8332 31.3211 65.6187 31.5362 65.6187 31.9662ZM7.72363 36.611C7.69145 39.4817 7.75581 39.7075 8.33509 39.7075C8.88218 39.7075 8.97872 39.4817 8.97872 38.5786V37.4496C11.3602 37.4174 12.2291 37.3206 12.4544 37.1916C12.744 37.0303 12.8405 36.3852 12.7762 35.353L12.6796 33.7403L7.72363 33.5467V36.611ZM9.01091 35.4821C9.01091 34.9337 9.23618 34.837 10.2982 34.837C11.3602 34.837 11.5854 34.9337 11.5854 35.4821C11.5854 36.0304 11.3602 36.1272 10.2982 36.1272C9.23618 36.1272 9.01091 36.0304 9.01091 35.4821ZM16.1231 35.0305C16.7345 35.8369 17.3138 36.5787 17.4425 36.6432C17.5713 36.7078 17.7 37.4174 17.7 38.2238C17.7 39.4495 17.7965 39.6752 18.3436 39.6752C18.8907 39.6752 18.9873 39.4495 18.9873 38.2238C18.9873 37.1271 19.2125 36.482 19.8884 35.5788C20.4033 34.9015 20.9182 34.1919 21.0147 33.9661C21.1649 33.6865 20.9718 33.5467 20.4354 33.5467C19.8884 33.5467 19.4378 33.837 19.0516 34.5144C18.762 35.0627 18.4402 35.4821 18.3436 35.4821C18.2471 35.4821 17.8931 35.0627 17.5391 34.5144C17.0564 33.837 16.638 33.5467 15.9622 33.5467H15.0611L16.1231 35.0305ZM21.5296 36.611V39.6752C26.4856 39.6752 26.6787 39.6107 26.6787 39.0301C26.6787 38.4495 26.4856 38.385 24.7478 38.385C23.0422 38.385 22.8169 38.3205 22.8169 37.7399C22.8169 37.2238 23.0422 37.0948 23.9433 37.0948C24.8765 37.0948 25.0696 36.9658 25.0696 36.4497C25.0696 35.9336 24.8765 35.8046 23.9433 35.8046C23.0422 35.8046 22.8169 35.6756 22.8169 35.1595C22.8169 34.5789 23.0422 34.5144 24.7478 34.5144C26.2604 34.5144 26.6787 34.4176 26.6787 34.0306C26.6787 33.6435 26.196 33.5467 24.1042 33.5467H21.5296V36.611ZM27.6442 36.611C27.6442 39.4495 27.7085 39.6752 28.2878 39.6752C28.8671 39.6752 28.9314 39.4817 28.9314 37.8367V35.9659C31.7956 38.8366 32.8254 39.6752 33.0507 39.6752C33.3403 39.6752 33.4369 38.8689 33.4369 36.611C33.4369 33.7725 33.4047 33.5467 32.7933 33.5467C32.2462 33.5467 32.1496 33.7725 32.1496 35.4176L32.1174 37.2561C29.5429 34.3854 28.5131 33.5467 28.2234 33.5467C27.7085 33.5467 27.6442 33.9016 27.6442 36.611ZM34.7242 36.611V39.6752C39.6802 39.6752 39.8733 39.6107 39.8733 39.0301C39.8733 38.4495 39.6802 38.385 37.9423 38.385C36.2367 38.385 36.0114 38.3205 36.0114 37.7399C36.0114 37.2238 36.2367 37.0948 37.1378 37.0948C38.0711 37.0948 38.2642 36.9658 38.2642 36.4497C38.2642 35.9336 38.0711 35.8046 37.1378 35.8046C36.2367 35.8046 36.0114 35.6756 36.0114 35.1595C36.0114 34.5789 36.2367 34.5144 37.9423 34.5144C39.4549 34.5144 39.8733 34.4176 39.8733 34.0306C39.8733 33.6435 39.3905 33.5467 37.2987 33.5467H34.7242V36.611ZM40.8709 36.611C40.8387 39.4817 40.9031 39.6752 41.4823 39.6752C41.9973 39.6752 42.126 39.4495 42.126 38.5463C42.126 37.8689 42.2869 37.4174 42.5443 37.4174C42.7696 37.4174 43.4454 37.9335 44.0569 38.5463C44.7005 39.1914 45.5051 39.6752 45.9234 39.6752C46.3096 39.6752 46.6314 39.5785 46.6314 39.4495C46.6636 39.3204 46.2774 38.8366 45.8591 38.385C45.0545 37.6109 45.0545 37.5787 45.666 37.1916C46.1809 36.869 46.3096 36.482 46.2453 35.2563L46.1487 33.708L40.8709 33.5145V36.611ZM42.1582 35.5143C42.1582 34.966 42.3513 34.8692 43.6063 34.8692C44.8293 34.8692 45.0545 34.966 45.0545 35.5143C45.0545 36.0627 44.8293 36.1594 43.6063 36.1594C42.3513 36.1594 42.1582 36.0627 42.1582 35.5143ZM50.0749 34.0306C49.9462 34.3209 49.8818 35.4498 49.8496 36.5465C49.8496 37.6754 50.0427 38.8366 50.268 39.1592C50.622 39.643 51.0725 39.7075 53.2609 39.643L55.8354 39.5462V33.7403C50.7829 33.579 50.2358 33.6435 50.0749 34.0306ZM51.4909 34.8692H54.7091V38.4173H51.4909V36.6432V34.8692ZM56.3182 33.7403C56.3182 33.8048 56.9296 35.224 57.6698 36.8045C58.5923 38.7613 59.2038 39.7075 59.5042 39.643C59.7616 39.5785 60.5018 38.2883 61.1776 36.8045C61.8534 35.2885 62.4005 33.9338 62.4005 33.8048C62.4005 33.6758 62.1752 33.579 61.8534 33.5467C61.4672 33.5467 61.0167 34.1919 60.3731 35.5788L59.472 37.6109C57.9273 33.9661 57.6054 33.579 57.0262 33.579C56.64 33.579 56.3182 33.6435 56.3182 33.7403ZM62.7223 36.2239C62.7223 38.0087 62.8618 39.0301 63.1407 39.2882C63.3982 39.5462 64.3314 39.6752 65.8118 39.6107L68.0645 39.5462C68.1611 33.8048 68.1289 33.579 67.5496 33.579C67.0025 33.579 66.9382 33.8048 66.9382 35.9981V38.4173H64.0418C64.0418 33.7725 63.9774 33.579 63.3982 33.579C62.7867 33.579 62.7545 33.8048 62.7223 36.2239ZM69.5771 36.5465C69.6414 39.0947 69.738 39.5462 70.2207 39.6107C70.7034 39.6752 70.8 39.4172 70.8 37.6754L70.8322 35.6756C73.6642 38.7721 74.7583 39.6752 75.048 39.6752C75.5629 39.7075 75.6272 39.3527 75.6272 36.6432C75.6272 33.7725 75.5629 33.579 74.9836 33.579C74.4043 33.579 74.34 33.7725 74.34 35.4176V37.2884C71.4758 34.4176 70.3816 33.579 70.0598 33.579C69.5449 33.579 69.4805 33.8693 69.5771 36.5465ZM61.4672 44.3845C61.4672 44.6426 61.7569 44.8683 62.1109 44.8683C62.4649 44.8683 62.7545 44.6426 62.7545 44.3845C62.7545 44.0942 62.4649 43.9007 62.1109 43.9007C61.7569 43.9007 61.4672 44.0942 61.4672 44.3845ZM63.0763 44.3845C63.0763 44.6426 63.2694 44.8683 63.5591 44.8683C63.8165 44.8683 64.0418 44.6426 64.0418 44.3845C64.0418 44.0942 63.8165 43.9007 63.5591 43.9007C63.2694 43.9007 63.0763 44.0942 63.0763 44.3845Z" fill="#1D1D26"/>
</svg>
